<svg width="15" height="16" viewBox="0 0 15 16" fill="none" xmlns="http://www.w3.org/2000/svg">
<g clip-path="url(#clip0_184:1829)">
<path d="M6.4944 2.09375L10.8029 3.43978C10.923 3.47729 11.0281 3.55223 11.1026 3.65366C11.1772 3.75509 11.2174 3.8777 11.2173 4.00358V5.04557H12.398C12.5546 5.04557 12.7048 5.10777 12.8155 5.21849C12.9262 5.3292 12.9884 5.47936 12.9884 5.63594V6.81666H5.31367V5.63594C5.31367 5.47936 5.37587 5.3292 5.48658 5.21849C5.5973 5.10777 5.74746 5.04557 5.90403 5.04557H10.0366V4.4375L6.4944 3.32997L2.95221 4.4375V8.80855C2.95213 9.16999 3.03501 9.52662 3.19448 9.85098C3.35394 10.1753 3.58574 10.4588 3.872 10.6794L3.98358 10.7597L6.4944 12.4724L8.72716 10.9492H5.90403C5.74746 10.9492 5.5973 10.887 5.48658 10.7763C5.37587 10.6656 5.31367 10.5154 5.31367 10.3589V7.99739H12.9884V10.3589C12.9884 10.5154 12.9262 10.6656 12.8155 10.7763C12.7048 10.887 12.5546 10.9492 12.398 10.9492L10.4971 10.9498C10.2686 11.2509 9.99113 11.5166 9.67056 11.735L6.4944 13.901L3.31824 11.7356C2.84153 11.4106 2.45144 10.974 2.18187 10.4639C1.9123 9.95377 1.77142 9.38552 1.77148 8.80855V4.00358C1.77156 3.8778 1.8118 3.75532 1.88635 3.65402C1.9609 3.55271 2.06585 3.47785 2.18592 3.44037L6.4944 2.09375Z" fill="white"/>
</g>
<defs>
<clipPath id="clip0_184:1829">
<rect width="14.1687" height="14.1687" fill="white" transform="translate(0 0.914062)"/>
</clipPath>
</defs>
</svg>
