<svg width="15" height="16" viewBox="0 0 15 16" fill="none" xmlns="http://www.w3.org/2000/svg">
<g clip-path="url(#clip0_184:1836)">
<path d="M10.0366 10.3588H11.2173V3.27448H5.31367V4.45521H10.0366V10.3588ZM10.0366 11.5396V13.3107C10.0366 13.6366 9.77092 13.901 9.44209 13.901H2.36598C2.28813 13.9015 2.21095 13.8866 2.13888 13.8571C2.06681 13.8277 2.00127 13.7843 1.94603 13.7294C1.89079 13.6746 1.84693 13.6093 1.81697 13.5375C1.78702 13.4656 1.77156 13.3885 1.77148 13.3107L1.77326 5.04557C1.77326 4.71969 2.03892 4.45521 2.36775 4.45521H4.13294V2.68411C4.13294 2.52754 4.19514 2.37738 4.30586 2.26666C4.41657 2.15595 4.56673 2.09375 4.72331 2.09375H11.8077C11.9643 2.09375 12.1144 2.15595 12.2251 2.26666C12.3358 2.37738 12.398 2.52754 12.398 2.68411V10.9492C12.398 11.1058 12.3358 11.2559 12.2251 11.3667C12.1144 11.4774 11.9643 11.5396 11.8077 11.5396H10.0366ZM4.13294 10.3588V11.5396H5.31367V12.1299H6.4944V11.5396H6.78958C7.18102 11.5396 7.55642 11.3841 7.83321 11.1073C8.10999 10.8305 8.26549 10.4551 8.26549 10.0637C8.26549 9.67223 8.10999 9.29683 7.83321 9.02004C7.55642 8.74325 7.18102 8.58776 6.78958 8.58776H5.01849C4.9402 8.58776 4.86512 8.55666 4.80976 8.5013C4.75441 8.44594 4.72331 8.37086 4.72331 8.29257C4.72331 8.21429 4.75441 8.13921 4.80976 8.08385C4.86512 8.02849 4.9402 7.99739 5.01849 7.99739H7.67513V6.81666H6.4944V6.2263H5.31367V6.81666H5.01849C4.62705 6.81666 4.25165 6.97216 3.97486 7.24895C3.69807 7.52573 3.54258 7.90114 3.54258 8.29257C3.54258 8.68401 3.69807 9.05941 3.97486 9.3362C4.25165 9.61299 4.62705 9.76849 5.01849 9.76849H6.78958C6.86787 9.76849 6.94295 9.79958 6.99831 9.85494C7.05366 9.9103 7.08476 9.98538 7.08476 10.0637C7.08476 10.142 7.05366 10.217 6.99831 10.2724C6.94295 10.3278 6.86787 10.3588 6.78958 10.3588H4.13294Z" fill="white"/>
</g>
<defs>
<clipPath id="clip0_184:1836">
<rect width="14.1687" height="14.1687" fill="white" transform="translate(0 0.914062)"/>
</clipPath>
</defs>
</svg>
