<svg width="15" height="16" viewBox="0 0 15 16" fill="none" xmlns="http://www.w3.org/2000/svg">
<g clip-path="url(#clip0_184:1839)">
<path d="M9.45627 1.49609C9.78252 1.49609 10.0473 1.76088 10.0473 2.08714V3.86027H12.4115C12.7377 3.86027 13.0025 4.12506 13.0025 4.45132V12.7259C13.0025 13.0522 12.7377 13.317 12.4115 13.317H1.77269C1.44643 13.317 1.18164 13.0522 1.18164 12.7259V4.45132C1.18164 4.12506 1.44643 3.86027 1.77269 3.86027H4.13686V2.08714C4.13686 1.76088 4.40165 1.49609 4.72791 1.49609H9.45627ZM7.68313 6.22445H6.50104V7.99759H4.72791V9.17968H6.50045L6.50104 10.9528H7.68313L7.68254 9.17968H9.45627V7.99759H7.68313V6.22445ZM8.86522 2.67818H5.31895V3.86027H8.86522V2.67818Z" fill="white"/>
</g>
<defs>
<clipPath id="clip0_184:1839">
<rect width="14.1851" height="14.1851" fill="white" transform="translate(0 0.90625)"/>
</clipPath>
</defs>
</svg>
