<svg width="345" height="345" viewBox="0 0 345 345" fill="none" xmlns="http://www.w3.org/2000/svg">
<path d="M127.916 153.125H141.291V206.625H127.916C126.734 206.625 125.6 206.155 124.764 205.319C123.928 204.483 123.458 203.349 123.458 202.167V157.583C123.458 156.401 123.928 155.267 124.764 154.431C125.6 153.595 126.734 153.125 127.916 153.125V153.125ZM151.514 147.36L180.048 118.827C180.427 118.447 180.931 118.216 181.466 118.178C182.002 118.139 182.534 118.295 182.963 118.618L186.766 121.471C187.823 122.264 188.62 123.352 189.059 124.597C189.498 125.843 189.558 127.191 189.232 128.47L184.091 148.667H212.625C214.99 148.667 217.258 149.606 218.93 151.278C220.602 152.951 221.541 155.218 221.541 157.583V166.964C221.543 168.129 221.315 169.283 220.873 170.361L207.074 203.865C206.737 204.682 206.166 205.381 205.431 205.872C204.697 206.363 203.834 206.625 202.95 206.625H154.666C153.484 206.625 152.35 206.155 151.514 205.319C150.678 204.483 150.208 203.349 150.208 202.167V150.512C150.208 149.33 150.678 148.196 151.514 147.36Z" fill="#34C759"/>
<path d="M172.501 28.75C176.313 28.75 179.97 30.2645 182.666 32.9603C185.361 35.6562 186.876 39.3125 186.876 43.125V86.25C186.876 90.0625 185.361 93.7188 182.666 96.4147C179.97 99.1105 176.313 100.625 172.501 100.625C168.688 100.625 165.032 99.1105 162.336 96.4147C159.64 93.7188 158.126 90.0625 158.126 86.25V43.125C158.126 39.3125 159.64 35.6562 162.336 32.9603C165.032 30.2645 168.688 28.75 172.501 28.75ZM172.501 244.375C176.313 244.375 179.97 245.89 182.666 248.585C185.361 251.281 186.876 254.938 186.876 258.75V301.875C186.876 305.687 185.361 309.344 182.666 312.04C179.97 314.735 176.313 316.25 172.501 316.25C168.688 316.25 165.032 314.735 162.336 312.04C159.64 309.344 158.126 305.687 158.126 301.875V258.75C158.126 254.938 159.64 251.281 162.336 248.585C165.032 245.89 168.688 244.375 172.501 244.375ZM316.251 172.5C316.251 176.312 314.736 179.969 312.041 182.665C309.345 185.36 305.688 186.875 301.876 186.875H258.751C254.938 186.875 251.282 185.36 248.586 182.665C245.89 179.969 244.376 176.312 244.376 172.5C244.376 168.688 245.89 165.031 248.586 162.335C251.282 159.64 254.938 158.125 258.751 158.125H301.876C305.688 158.125 309.345 159.64 312.041 162.335C314.736 165.031 316.251 168.688 316.251 172.5ZM100.626 172.5C100.626 176.312 99.1115 179.969 96.4156 182.665C93.7198 185.36 90.0635 186.875 86.251 186.875H43.126C39.3135 186.875 35.6572 185.36 32.9613 182.665C30.2655 179.969 28.751 176.312 28.751 172.5C28.751 168.688 30.2655 165.031 32.9613 162.335C35.6572 159.64 39.3135 158.125 43.126 158.125H86.251C90.0635 158.125 93.7198 159.64 96.4156 162.335C99.1115 165.031 100.626 168.688 100.626 172.5ZM274.147 274.146C271.451 276.841 267.795 278.354 263.983 278.354C260.172 278.354 256.516 276.841 253.82 274.146L223.331 243.656C220.712 240.945 219.264 237.314 219.296 233.545C219.329 229.776 220.841 226.17 223.506 223.505C226.171 220.84 229.777 219.328 233.546 219.295C237.315 219.263 240.946 220.711 243.657 223.33L274.147 253.805C275.483 255.14 276.543 256.725 277.267 258.471C277.99 260.216 278.363 262.086 278.363 263.975C278.363 265.864 277.99 267.735 277.267 269.48C276.543 271.225 275.483 272.811 274.147 274.146ZM121.671 121.67C118.975 124.365 115.32 125.879 111.508 125.879C107.696 125.879 104.04 124.365 101.345 121.67L70.8697 91.195C68.1724 88.4996 66.6563 84.843 66.6549 81.0298C66.6536 77.2165 68.1671 73.5589 70.8625 70.8616C73.558 68.1642 77.2145 66.6481 81.0278 66.6468C84.841 66.6454 88.4986 68.1589 91.196 70.8544L121.671 101.344C124.366 104.039 125.88 107.695 125.88 111.507C125.88 115.319 124.366 118.974 121.671 121.67ZM70.8697 274.146C68.1748 271.45 66.6609 267.794 66.6609 263.983C66.6609 260.171 68.1748 256.515 70.8697 253.819L101.359 223.33C102.685 221.957 104.271 220.862 106.025 220.109C107.779 219.355 109.665 218.959 111.574 218.942C113.483 218.925 115.376 219.289 117.142 220.012C118.909 220.735 120.514 221.802 121.864 223.152C123.213 224.502 124.281 226.107 125.003 227.873C125.726 229.64 126.09 231.533 126.073 233.441C126.057 235.35 125.66 237.236 124.907 238.99C124.153 240.744 123.058 242.33 121.685 243.656L91.2103 274.146C89.8753 275.482 88.2899 276.542 86.5448 277.266C84.7997 277.989 82.9291 278.362 81.04 278.362C79.1509 278.362 77.2804 277.989 75.5353 277.266C73.7902 276.542 72.2048 275.482 70.8697 274.146ZM223.331 121.67C220.636 118.974 219.122 115.319 219.122 111.507C219.122 107.695 220.636 104.039 223.331 101.344L253.806 70.8544C256.501 68.157 260.158 66.6409 263.971 66.6396C267.784 66.6382 271.442 68.1518 274.139 70.8472C276.837 73.5426 278.353 77.1992 278.354 81.0124C278.356 84.8257 276.842 88.4833 274.147 91.1806L243.657 121.67C240.962 124.365 237.306 125.879 233.494 125.879C229.682 125.879 226.027 124.365 223.331 121.67Z" fill="#34C759" fill-opacity="0.05"/>
</svg>
