<svg width="15" height="16" viewBox="0 0 15 16" fill="none" xmlns="http://www.w3.org/2000/svg">
<path d="M1.18164 6.22578H12.3986C12.5551 6.22578 12.7053 6.28798 12.816 6.39869C12.9267 6.50941 12.9889 6.65957 12.9889 6.81614V12.7198C12.9889 12.8764 12.9267 13.0265 12.816 13.1372C12.7053 13.248 12.5551 13.3102 12.3986 13.3102H1.772C1.61543 13.3102 1.46527 13.248 1.35455 13.1372C1.24384 13.0265 1.18164 12.8764 1.18164 12.7198V6.22578ZM1.772 2.68359H10.6275V5.04505H1.18164V3.27396C1.18164 3.11738 1.24384 2.96722 1.35455 2.85651C1.46527 2.74579 1.61543 2.68359 1.772 2.68359V2.68359ZM8.85638 9.1776V10.3583H10.6275V9.1776H8.85638Z" fill="white"/>
</svg>
