<svg width="1440" height="1249" viewBox="0 0 1440 1249" fill="none" xmlns="http://www.w3.org/2000/svg">
<path d="M721.003 40.7959C1006.44 41.0164 1440 40.796 1440 40.796L1440 1236L-2.00024 1236L-2.00017 40.7958C-2.00017 40.7958 434.793 40.5748 721.003 40.7959Z" fill="url(#paint0_linear_1:284)"/>
<path d="M1440 0.000125889L0 0L-1.26239e-05 144.401C289.125 233.428 502.54 197.333 771 131.845C976.875 81.6248 1184.25 61.08 1440 129.563L1440 0.000125889Z" fill="#FEFEFF"/>
<path d="M-3 1236L1443 1236L1443 1145.43C1152.67 1057.13 938.366 1092.93 668.787 1157.88C462.055 1207.7 253.816 1228.08 -3 1160.15L-3 1236Z" fill="white"/>
<path d="M185 306.5L147.75 371.019L73.25 371.019L36 306.5L73.25 241.981L147.75 241.981L185 306.5Z" fill="white" fill-opacity="0.09"/>
<path d="M316 384.5L278.75 449.019L204.25 449.019L167 384.5L204.25 319.981L278.75 319.981L316 384.5Z" fill="white" fill-opacity="0.09"/>
<path d="M184 464.5L146.75 529.019L72.25 529.019L35 464.5L72.25 399.981L146.75 399.981L184 464.5Z" fill="white" fill-opacity="0.09"/>
<path d="M87.6997 1184.35L87.6997 1109.85L152.219 1072.6L216.737 1109.85L216.737 1184.35L152.219 1221.6L87.6997 1184.35Z" fill="white" fill-opacity="0.09"/>
<path d="M-64.7496 1182.3L-64.7496 1107.8L-0.230742 1070.55L64.2881 1107.8L64.2881 1182.3L-0.230743 1219.55L-64.7496 1182.3Z" fill="white" fill-opacity="0.09"/>
<path d="M9.56567 1047.02L9.56567 972.519L74.0846 935.269L138.603 972.519L138.603 1047.02L74.0846 1084.27L9.56567 1047.02Z" fill="white" fill-opacity="0.09"/>
<path d="M1349 928.5L1311.75 993.019L1237.25 993.019L1200 928.5L1237.25 863.981L1311.75 863.981L1349 928.5Z" fill="white" fill-opacity="0.09"/>
<path d="M1480 1006.5L1442.75 1071.02L1368.25 1071.02L1331 1006.5L1368.25 941.981L1442.75 941.981L1480 1006.5Z" fill="white" fill-opacity="0.09"/>
<path d="M1348 1086.5L1310.75 1151.02L1236.25 1151.02L1199 1086.5L1236.25 1021.98L1310.75 1021.98L1348 1086.5Z" fill="white" fill-opacity="0.09"/>
<path d="M1456 173.5L1418.75 238.019L1344.25 238.019L1307 173.5L1344.25 108.981L1418.75 108.981L1456 173.5Z" fill="white" fill-opacity="0.09"/>
<path d="M1455 331.5L1417.75 396.019L1343.25 396.019L1306 331.5L1343.25 266.981L1417.75 266.981L1455 331.5Z" fill="white" fill-opacity="0.09"/>
<defs>
<linearGradient id="paint0_linear_1:284" x1="353.493" y1="1330.53" x2="1455.43" y2="471.138" gradientUnits="userSpaceOnUse">
<stop stop-color="#D8365D"/>
<stop offset="1" stop-color="#F799E8"/>
</linearGradient>
</defs>
</svg>
