<svg width="18" height="18" viewBox="0 0 18 18" fill="none" xmlns="http://www.w3.org/2000/svg">
<path d="M9 -7.86805e-07C13.9707 -3.52253e-07 18 4.0293 18 9C18 13.9707 13.9707 18 9 18C4.0293 18 3.52253e-07 13.9707 7.86805e-07 9C1.22136e-06 4.0293 4.0293 -1.22136e-06 9 -7.86805e-07ZM9 1.8C7.09044 1.8 5.25909 2.55857 3.90883 3.90883C2.55857 5.25909 1.8 7.09044 1.8 9C1.8 10.9096 2.55857 12.7409 3.90883 14.0912C5.25909 15.4414 7.09044 16.2 9 16.2C10.9096 16.2 12.7409 15.4414 14.0912 14.0912C15.4414 12.7409 16.2 10.9096 16.2 9C16.2 7.09044 15.4414 5.25909 14.0912 3.90883C12.7409 2.55857 10.9096 1.8 9 1.8ZM9.9 6.3L8.1 6.3L8.1 4.5L9.9 4.5L9.9 6.3ZM9.9 13.5L8.1 13.5L8.1 8.1L9.9 8.1L9.9 13.5Z" fill="#D8365D"/>
</svg>
