<svg width="32" height="31" viewBox="0 0 32 31" fill="none" xmlns="http://www.w3.org/2000/svg">
<path d="M15.784 0C7.06663 0 0 6.7494 0 15.0754C0 23.4015 7.06663 30.1509 15.784 30.1509C24.5014 30.1509 31.568 23.4015 31.568 15.0754C31.568 6.7494 24.5014 0 15.784 0ZM11.9202 21.3239H8.72395V11.4997H11.9202V21.3239ZM10.3024 10.2937C9.29284 10.2937 8.6401 9.61059 8.6401 8.76574C8.6401 7.90361 9.31257 7.24092 10.3435 7.24092C11.3744 7.24092 12.0057 7.90361 12.0254 8.76574C12.0254 9.61059 11.3744 10.2937 10.3024 10.2937ZM23.5938 21.3239H20.3975V15.8795C20.3975 14.6122 19.9339 13.7516 18.778 13.7516C17.8951 13.7516 17.3706 14.3342 17.1388 14.8948C17.0533 15.0943 17.0319 15.3769 17.0319 15.658V21.3223H13.834V14.6326C13.834 13.4061 13.7929 12.3807 13.7502 11.4982H16.5272L16.6735 12.8628H16.7376C17.1585 12.2221 18.1894 11.2767 19.9142 11.2767C22.0171 11.2767 23.5938 12.6225 23.5938 15.5151V21.3239Z" fill="white"/>
</svg>
