<svg width="767" height="702" viewBox="0 0 767 702" fill="none" xmlns="http://www.w3.org/2000/svg">
<path d="M449.634 20.1225L518.268 139L449.634 257.878L312.366 257.878L243.732 139L312.366 20.1225L449.634 20.1225Z" stroke="white" stroke-width="3"/>
<path d="M696.636 164.055L765.266 282.5L696.636 400.945L559.364 400.945L490.734 282.5L559.364 164.055L696.636 164.055Z" stroke="white" stroke-width="3"/>
<path d="M207.634 159.122L276.268 278L207.634 396.878L70.366 396.878L1.73205 278L70.366 159.122L207.634 159.122Z" stroke="white" stroke-width="3"/>
<path d="M696.636 445.055L765.266 563.5L696.636 681.945L559.364 681.945L490.734 563.5L559.364 445.055L696.636 445.055Z" stroke="white" stroke-width="3"/>
<path d="M207.634 444.122L276.268 563L207.634 681.878L70.366 681.878L1.73205 563L70.366 444.122L207.634 444.122Z" stroke="white" stroke-width="3"/>
<path d="M537 424.5L458.75 560.033L302.25 560.033L224 424.5L302.25 288.967L458.75 288.967L537 424.5Z" fill="white"/>
<path d="M495.5 353.5L522 338" stroke="white" stroke-width="3"/>
<path d="M270.5 488L244 503.5" stroke="white" stroke-width="3"/>
<path d="M268.5 353.5L242 338" stroke="white" stroke-width="3"/>
<path d="M497.5 488L524 503.5" stroke="white" stroke-width="3"/>
<path d="M386.423 290.699L386.25 260" stroke="white" stroke-width="3"/>
</svg>
