<svg width="134" height="78" viewBox="0 0 134 78" fill="none" xmlns="http://www.w3.org/2000/svg">
<path d="M127.228 27.2759L123.1 31.3972L116.917 25.2139L110.728 31.3972L121.038 41.7105L116.914 45.8347L114.852 43.7726L96.2905 62.3343H79.7909L73.6046 68.5205L69.4805 64.3964L75.6667 58.2101V41.7105L94.2284 23.1489L92.1663 21.0868L96.2905 16.9626L106.604 27.273L112.787 21.0868L106.604 14.9005L110.728 10.7734L127.228 27.273V27.2759ZM92.1663 45.8318L83.9151 37.5834L79.7909 41.7076L88.0421 49.9559L92.1663 45.8318ZM100.415 37.5834L92.1663 29.3351L88.0421 33.4622L96.2905 41.7105L100.415 37.5864V37.5834Z" fill="#D8365D"/>
<path d="M57.375 6.5V13H54V58.5C54 65.6825 47.9587 71.5 40.5 71.5C33.0412 71.5 27 65.6825 27 58.5V13H23.625V6.5H57.375ZM43.875 48.75C42.012 48.75 40.5 50.206 40.5 52C40.5 53.794 42.012 55.25 43.875 55.25C45.738 55.25 47.25 53.794 47.25 52C47.25 50.206 45.738 48.75 43.875 48.75ZM37.125 39C35.262 39 33.75 40.456 33.75 42.25C33.75 44.044 35.262 45.5 37.125 45.5C38.988 45.5 40.5 44.044 40.5 42.25C40.5 40.456 38.988 39 37.125 39ZM47.25 13H33.75V26H47.25V13Z" fill="#D8365D"/>
</svg>
