<svg width="69" height="71" viewBox="0 0 69 71" fill="none" xmlns="http://www.w3.org/2000/svg">
<path d="M37.9385 6.7091L47.2822 23.3645C48.0757 24.7756 47.6042 26.5861 46.23 27.4026L42.4925 29.6214L45.3704 34.7452L40.3909 37.7036L37.5159 32.5768L33.7812 34.7985C32.407 35.615 30.6475 35.1298 29.854 33.7157L24.5697 24.3023C18.6702 26.1424 14.375 31.7869 14.375 38.4579C14.375 40.3069 14.7056 42.0789 15.3065 43.7119C17.5375 42.2564 20.171 41.4163 23 41.4163C27.8415 41.4163 32.1252 43.8806 34.73 47.6554L56.833 34.5234L59.708 39.6472L37.0588 53.1046C37.2658 54.1046 37.375 55.1459 37.375 56.2079C37.375 57.2226 37.2772 58.2107 37.0875 59.1663H60.375V65.0829L11.5 65.0859C9.6945 62.6127 8.625 59.539 8.625 56.2079C8.625 53.2289 9.48175 50.454 10.9537 48.1317C9.46737 45.2473 8.625 41.9547 8.625 38.4579C8.625 29.5977 14.0329 22.0362 21.6401 19.0809L20.5102 17.0633C18.9232 14.2321 19.8634 10.6141 22.6148 8.9811L30.084 4.5436C32.8354 2.9106 36.3515 3.87798 37.9385 6.7091Z" fill="#D8365D"/>
</svg>
